# xmcd CD database file
#
# Track frame offsets:
#	150
#	16017
#	30525
#	45232
#	60025
#	74397
#	89285
#	103162
#	118947
#	133307
#	148585
#	164130
#	180022
#	193367
#	207572
#	222527
#	235875
#	249332
#	262215
#	275555
#	288962
#	302220
#	315855
#	328535
#
# Disc length: 4584 seconds
#
# Revision: 0
# Processed by: cddbd v1.4PL0 Copyright (c) Steve Scherf et al.
# Submitted via: CDex 1.40Release
#
DISCID=6711e618
DTITLE=Bessie Smith - Down and Out
DYEAR=1900
DGENRE=Blues
TTITLE0=Gimme a Pigfoot
TTITLE1=Yodlig Blues
TTITLE2=Jail House Blues
TTITLE3=Pinchbacks, Take'em Away
TTITLE4=Weeping Willow Blues
TTITLE5=Follow the Deal On Down
TTITLE6=Reckless Blues
TTITLE7=You've Been a Good Old Wagon
TTITLE8=Cake Walkin' Babies (From Home)
TTITLE9=I Ain't Goin' To Play no Second Fiddle
TTITLE10=Careless love Blues
TTITLE11=My Man Blues
TTITLE12=I've Been Mistrated and Don't like it
TTITLE13=Young Woman Blues
TTITLE14=Backwater Blues
TTITLE15=After You've Gone
TTITLE16=Lock And Key
TTITLE17=Me and My Gin
TTITLE18=Kitchen Man
TTITLE19=Nobody Knows You when You are Down and Out
TTITLE20=On Revival Day
TTITLE21=In the House Blues
TTITLE22=Need a little Sugar in My Bowl
TTITLE23=Do Your Duty
EXTD=ID3G: 0
EXTT0=
EXTT1=
EXTT2=
EXTT3=
EXTT4=
EXTT5=
EXTT6=
EXTT7=
EXTT8=
EXTT9=
EXTT10=
EXTT11=
EXTT12=
EXTT13=
EXTT14=
EXTT15=
EXTT16=
EXTT17=
EXTT18=
EXTT19=
EXTT20=
EXTT21=
EXTT22=
EXTT23=
PLAYORDER=
